<svg version="1.1" xmlns="http://www.w3.org/2000/svg" viewBox="0 0 1089.24609375 703.4664620422475" width="2178.4921875" height="1406.932924084495">
  <!-- svg-source:excalidraw -->
  
  <defs>
    <style>
      @font-face {
        font-family: "Virgil";
        src: url("https://excalidraw.com/Virgil.woff2");
      }
      @font-face {
        font-family: "Cascadia";
        src: url("https://excalidraw.com/Cascadia.woff2");
      }
    </style>
  </defs>
  <g stroke-linecap="round" transform="translate(541.8671875 12.328125) rotate(0 118.15234375 103.068359375)"><path d="M0.52 1.13 C62.75 2.3, 129.46 1.31, 234.86 0.87 M0.27 -0.66 C59.9 -0.99, 121.02 -0.63, 235.83 -0.63 M236.19 0.9 C234.67 44.23, 236.86 90.87, 237.89 207.31 M236.09 0.28 C234.57 52.19, 233.7 104.3, 235.6 206.31 M236.45 206.12 C177.15 203.8, 118.81 204.82, -0.51 206.8 M236.17 206 C177.12 207.64, 116.79 206.58, -0.4 206.49 M1.17 204.84 C-0.7 144.23, -1.09 78.95, 1.31 1.45 M-0.46 205.62 C-0.36 148.56, -0.62 89.98, -0.03 -0.67" stroke="#000000" stroke-width="1" fill="none"></path></g><g stroke-linecap="round" transform="translate(263.8359375 203.55859375) rotate(0 118.15234375 103.068359375)"><path d="M-0.94 0.05 C50.37 1.48, 103.02 1.3, 235.68 -0.55 M0.66 -0.19 C66.16 0, 131.95 0.17, 236.11 0.09 M234.88 -0.33 C236.41 72.73, 237.08 144.52, 235.59 205.48 M236.35 -0.32 C236.94 78.1, 235.82 155.86, 236.06 205.26 M236.86 206.94 C147.89 207.52, 63.29 207.5, 0.23 205.74 M236.22 205.4 C148.83 205.64, 59.96 206.3, -0.19 206.4 M-0.32 206.51 C-0.37 129.58, -1.1 56.63, 0.94 1.76 M0.45 205.65 C-0.39 134.23, -0.13 61.6, -0.7 -0.11" stroke="#000000" stroke-width="1" fill="none"></path></g><g stroke-linecap="round" transform="translate(533.890625 528.8671875) rotate(0 120.138671875 60.701171875)"><path d="M0.05 -1.19 C56.9 1, 112.63 0.5, 239.73 -0.35 M-0.19 0.17 C86.79 -1.6, 173.82 -1.76, 240.36 0.39 M239.91 0.97 C241.02 33.12, 241.23 62, 239.54 122.96 M239.92 0.36 C239.65 37.62, 239.54 76.77, 239.29 122.08 M241.08 120.01 C167.31 123.07, 92.82 122.29, -0.39 122.62 M239.54 122.07 C167.22 121.14, 94.89 121.02, 0.26 121.96 M0.42 120.77 C-1.5 84.79, 1.4 52.15, 1.97 1.05 M-0.55 121.38 C1.56 82.78, 1.63 42.83, -0.13 0.28" stroke="#000000" stroke-width="1" fill="none"></path></g><g stroke-linecap="round" transform="translate(527.71484375 278.0390625) rotate(0 118.15234375 103.068359375)"><path d="M-1.2 1 C65.02 0.76, 129.65 -0.6, 235.96 1.03 M0.17 -0.08 C69.96 0.55, 139.79 0.55, 236.7 -0.35 M237.16 1.12 C236.37 54.54, 234.12 105.84, 237.69 206.45 M236.62 0.24 C235.6 46.6, 236.16 92.02, 236.91 206.23 M234.91 207.65 C167.99 208.58, 97.88 206.7, 1.23 206.2 M236.97 206.06 C170.39 204.97, 104.41 204.65, 0.56 206.05 M-0.56 205.12 C-0.96 139.91, 1.27 72.33, 0.94 0.36 M-0.02 206.91 C-0.7 157.02, -1.64 106.15, 0.25 -0.12" stroke="#000000" stroke-width="1" fill="none"></path></g><g transform="translate(605.50390625 97.1640625) rotate(0 47 12.5)"><text x="0" y="18" font-family="Virgil, Segoe UI Emoji" font-size="20px" fill="#000000" text-anchor="start" style="white-space: pre;" direction="ltr">Employees</text></g><g stroke-linecap="round" transform="translate(843.52734375 10) rotate(0 115.44921875 115.052734375)"><path d="M1.03 0.93 C64.56 0.49, 126.13 0.58, 232.51 0.84 M-0.28 0.29 C53.12 -0.49, 106.3 -0.71, 230.48 -0.22 M230.61 -0.32 C229.93 82.61, 231.72 165.48, 231.23 229.79 M231.24 0.56 C231.42 79.77, 231.32 158.99, 230.3 229.37 M229.28 231.09 C171.97 228.54, 109.77 227.42, -0.64 231.33 M230.44 230.68 C172.5 230.96, 112.57 230.4, -0.68 230.95 M1.48 228.76 C-1.31 142.12, -0.25 53.68, -0.63 1.31 M0.57 230.33 C0.54 182.86, 1.5 137.82, 0.56 -0.59" stroke="#000000" stroke-width="1" fill="none"></path></g><g stroke-linecap="round" transform="translate(844.421875 289.2421875) rotate(0 117.412109375 61.935546875)"><path d="M0.99 -0.2 C86.56 2.09, 171.91 0.32, 233.39 -1.57 M0.77 0.84 C64.09 -1.8, 128.11 -1.21, 234.08 0.71 M233.85 0.73 C236.26 26.95, 236.12 49.92, 232.95 125.38 M235.77 0.57 C235.02 28.38, 236.04 55.33, 235.45 123.31 M233.22 122.25 C179.85 122.64, 121.55 121.77, -1.59 124.08 M234.49 124.18 C176.24 122.71, 117.95 122.39, 0.39 123.59 M-0.35 124.85 C2.05 85.43, 0.45 44.7, -1.28 -1.14 M0.26 122.91 C-0.92 95.77, -0.41 66.73, -0.28 0.45" stroke="#000000" stroke-width="1" fill="none"></path></g><g transform="translate(908.4765625 112.552734375) rotate(0 50.5 12.5)"><text x="50.5" y="18" font-family="Virgil, Segoe UI Emoji" font-size="20px" fill="#000000" text-anchor="middle" style="white-space: pre;" direction="ltr">Customers</text></g><g transform="translate(923.333984375 338.677734375) rotate(0 38.5 12.5)"><text x="38.5" y="18" font-family="Virgil, Segoe UI Emoji" font-size="20px" fill="#000000" text-anchor="middle" style="white-space: pre;" direction="ltr">Shippers</text></g><g transform="translate(555.5859375 363.3359375) rotate(0 86.5 12.5)"><text x="0" y="18" font-family="Virgil, Segoe UI Emoji" font-size="20px" fill="#000000" text-anchor="start" style="white-space: pre;" direction="ltr">EmployeeTerritory</text></g><g transform="translate(598.30859375 574.638671875) rotate(0 44.5 12.5)"><text x="44.5" y="18" font-family="Virgil, Segoe UI Emoji" font-size="20px" fill="#000000" text-anchor="middle" style="white-space: pre;" direction="ltr">Territory</text></g><g transform="translate(318.94140625 289.861328125) rotate(0 57.5 12.5)"><text x="57.5" y="18" font-family="Virgil, Segoe UI Emoji" font-size="20px" fill="#000000" text-anchor="middle" style="white-space: pre;" direction="ltr">OrderDetail</text></g><g stroke-linecap="round" transform="translate(274.42578125 490.7578125) rotate(0 100.853515625 84.95703125)"><path d="M0.15 0.42 C68.37 1.66, 137.79 0.28, 202.16 0.89 M-0.29 -0.69 C48.13 -0.39, 98.18 0.94, 201.14 0.45 M201.71 1.58 C202.33 34.38, 201.71 73.68, 202.34 171.59 M202.12 -0.6 C200.77 52.7, 202.56 104.33, 202.33 169.22 M200.57 169.95 C140.44 167.69, 77.87 168.8, -0.23 168.97 M201.48 170.51 C127.14 170.32, 52.13 170.17, 0.14 170.76 M-1.15 168.09 C0.81 126.54, 1.84 79.14, -0.73 -1.32 M0.49 169.94 C1.1 127.76, 0.86 84.91, 0.64 0.56" stroke="#000000" stroke-width="1" fill="none"></path></g><g transform="translate(329.443359375 558.37109375) rotate(0 44 12.5)"><text x="44" y="18" font-family="Virgil, Segoe UI Emoji" font-size="20px" fill="#000000" text-anchor="middle" style="white-space: pre;" direction="ltr">Category</text></g><g stroke-linecap="round" transform="translate(23.24609375 19.75390625) rotate(0 103.748046875 90.958984375)"><path d="M-0.27 1.55 C80.6 -0.53, 157.96 -0.84, 208.39 -0.74 M0.59 0.03 C71.46 1.37, 142.09 0.56, 207.94 0.43 M208.37 -0.69 C207.47 71.8, 206 146.89, 207.49 180.74 M207.77 -0.48 C208.66 57.77, 207.13 116.14, 208.17 182.8 M208.6 182.46 C154.63 181.53, 103.02 184.36, 1.11 183.14 M208.27 181.25 C137.64 180.03, 67.74 181.13, -0.67 181.77 M1.64 182.22 C-0.83 125.53, 0.07 66.14, -1.91 0.48 M-0.03 181.89 C-0.27 117.32, 0.39 51.86, 0.33 0.98" stroke="#000000" stroke-width="1" fill="none"></path></g><g transform="translate(86.650390625 89.947265625) rotate(0 38.5 12.5)"><text x="38.5" y="18" font-family="Virgil, Segoe UI Emoji" font-size="20px" fill="#000000" text-anchor="middle" style="white-space: pre;" direction="ltr">Product</text></g><g stroke-linecap="round" transform="translate(10 264.953125) rotate(0 109.6171875 88.673828125)"><path d="M-0.29 -1.56 C74.98 3.16, 152.8 0.63, 219.6 -0.16 M-0.43 -0.08 C45.4 -0.7, 90.13 -2.07, 219.08 -0.47 M218.57 -0.38 C218.49 62.31, 218.61 121.79, 219.55 178.69 M218.9 -0.69 C217.25 35.28, 218.16 71.47, 218.3 176.92 M217.87 176.1 C140.81 173.85, 65.15 176.69, -1.68 176.89 M219.4 176.64 C152.94 177.92, 88.72 178.61, 0.8 177.32 M1.69 178.49 C-2.95 131.54, 0.5 87.21, 0.01 0.73 M0.62 176.51 C-1.01 120.49, -0.04 64.61, -0.45 -0.6" stroke="#000000" stroke-width="1" fill="none"></path></g><g transform="translate(81.15234375 336.919921875) rotate(0 36 12.5)"><text x="36" y="18" font-family="Virgil, Segoe UI Emoji" font-size="20px" fill="#000000" text-anchor="middle" style="white-space: pre;" direction="ltr">Supplier</text></g><g stroke-linecap="round" transform="translate(23.85546875 491.71875) rotate(0 94.51171875 57.83984375)"><path d="M0.44 -1.07 C47.42 1.03, 95.41 0.19, 189.13 0.92 M0.83 0.83 C75.13 -1.8, 147.95 -1.64, 188.11 -0.54 M190.38 -0.54 C190.64 37.47, 187.85 75.64, 187.12 114.1 M188.27 0.26 C189.27 36.44, 189.07 73.11, 188.19 115.48 M190.26 115.63 C127.49 116.45, 67.43 115.68, 0.03 115.92 M189.53 115.38 C118.95 117.93, 47.45 118.1, 0.32 116 M0.46 114.54 C0.57 85.49, -0.5 50.48, 1.2 0.39 M-0.51 114.77 C0.28 84.77, -1.3 55.11, -0.7 -0.88" stroke="#000000" stroke-width="1" fill="none"></path></g><g transform="translate(88.8671875 537.05859375) rotate(0 29.5 12.5)"><text x="29.5" y="18" font-family="Virgil, Segoe UI Emoji" font-size="20px" fill="#000000" text-anchor="middle" style="white-space: pre;" direction="ltr">Region</text></g><g stroke-linecap="round"><g transform="translate(232.1953125 105.38671875) rotate(0 40.00545645581559 48.35740093369185)"><path d="M0 -0.79 C3.72 -1.54, 11.4 -4.41, 21.66 -3.52 C31.91 -2.63, 51.83 -2.77, 61.53 4.56 C71.23 11.88, 78.66 27.18, 79.84 40.46 C81.02 53.73, 68.6 74.21, 68.63 84.2 C68.65 94.19, 78.15 97.97, 80 100.39 M-1.47 1.41 C2.15 0.8, 10.32 -2.6, 20.68 -1.91 C31.05 -1.22, 50.77 -1.65, 60.7 5.54 C70.63 12.73, 79.19 28.08, 80.27 41.23 C81.35 54.39, 66.99 74.7, 67.19 84.48 C67.39 94.26, 79.29 97.18, 81.48 99.89" stroke="#000000" stroke-width="1" fill="none"></path></g></g><g stroke-linecap="round"><g transform="translate(231.8828125 203.078125) rotate(0 77.33155242917127 143.1287990679126)"><path d="M0.7 0.59 C4.8 5.66, 21.55 18.42, 24.58 30.68 C27.6 42.94, 20.92 62.12, 18.84 74.16 C16.76 86.19, 13.32 85.26, 12.1 102.89 C10.87 120.52, 3.32 157.71, 11.5 179.91 C19.68 202.11, 38.75 223.04, 61.16 236.08 C83.57 249.13, 130.59 249.78, 145.98 258.17 C161.36 266.55, 152.3 281.78, 153.45 286.4 M-0.39 -0.14 C3.59 5.03, 20.26 19.71, 23.88 31.81 C27.49 43.9, 23.27 60.47, 21.31 72.43 C19.35 84.4, 13.45 85.7, 12.12 103.59 C10.8 121.47, 5.02 157.88, 13.34 179.77 C21.67 201.66, 39.93 222.05, 62.08 234.94 C84.23 247.83, 131.09 248.62, 146.23 257.13 C161.37 265.64, 152.06 280.88, 152.93 285.99" stroke="#000000" stroke-width="1" fill="none"></path></g></g><g stroke-linecap="round"><g transform="translate(124.80078125 200.14453125) rotate(0 16.313288424112272 32.105395956765875)"><path d="M0.18 0.84 C5.8 4.38, 31.28 11.19, 33.68 21.59 C36.07 31.98, 17.64 55.9, 14.53 63.2 M-1.18 0.24 C4.32 3.44, 29.95 9.42, 32.98 20.04 C36.01 30.67, 19.99 56.74, 17.02 63.97" stroke="#000000" stroke-width="1" fill="none"></path></g></g><g stroke-linecap="round"><g transform="translate(166.34375 610.234375) rotate(0 228.36372364597398 41.79362210991309)"><path d="M0.92 0.92 C10.21 12.14, 29.56 54.78, 55.79 66.74 C82.03 78.71, 115.44 70.85, 158.33 72.72 C201.23 74.59, 274.8 76.45, 313.17 77.96 C351.53 79.48, 372.12 85.63, 388.52 81.78 C404.92 77.93, 400.23 61.44, 411.55 54.86 C422.88 48.29, 449.02 44.49, 456.45 42.34 M-0.06 0.36 C9.15 11.75, 28.5 55.5, 55.29 67.78 C82.08 80.06, 117.64 72.66, 160.68 74.03 C203.73 75.4, 275.26 74.6, 313.57 76.01 C351.87 77.43, 373.92 85.74, 390.5 82.55 C407.07 79.36, 401.94 63.79, 412.99 56.86 C424.04 49.92, 449.23 43.52, 456.79 40.94" stroke="#000000" stroke-width="1" fill="none"></path></g></g><g stroke-linecap="round"><g transform="translate(629.03515625 483.0078125) rotate(0 9.403960280269416 23.873798258453633)"><path d="M0.42 0.81 C2.57 3.41, 12.81 11.54, 14.08 15.63 C15.34 19.71, 7.15 20.17, 7.99 25.32 C8.84 30.47, 17.4 42.89, 19.17 46.51 M-0.82 0.19 C1.17 2.45, 12.43 9.56, 13.71 13.97 C14.99 18.39, 5.88 21.09, 6.86 26.69 C7.85 32.29, 17.93 44.06, 19.63 47.55" stroke="#000000" stroke-width="1" fill="none"></path></g></g><g stroke-linecap="round"><g transform="translate(638.73046875 218.89453125) rotate(0 27.779220353057724 28.100560811869798)"><path d="M-1.14 -0.55 C7.86 3.5, 47.53 15.22, 53.66 24.64 C59.79 34.06, 38.79 50.57, 35.66 55.99 M0.47 1.78 C9.84 5.44, 50 13.7, 55.77 22.86 C61.55 32.03, 38.61 50.83, 35.14 56.75" stroke="#000000" stroke-width="1" fill="none"></path></g></g><g stroke-linecap="round"><g transform="translate(541.86328125 110.1171875) rotate(0 -47.07148997623739 -15.248958199369383)"><path d="M0.52 -0.3 C-4.86 4.37, -15.76 25.09, -31.26 26.93 C-46.76 28.78, -83.53 23.25, -92.47 10.77 C-101.41 -1.72, -93.36 -36.37, -84.91 -47.98 C-76.46 -59.58, -54.69 -58.35, -41.77 -58.83 C-28.86 -59.32, -14.62 -53.32, -7.44 -50.89 C-0.26 -48.46, -0.14 -45.5, 1.31 -44.27 M-0.66 -1.5 C-6.31 3.38, -17.4 25.76, -32.3 27.93 C-47.2 30.1, -81.39 24.07, -90.05 11.5 C-98.7 -1.07, -92.1 -35.84, -84.23 -47.48 C-76.37 -59.12, -55.84 -57.62, -42.86 -58.33 C-29.87 -59.05, -13.83 -54.46, -6.31 -51.77 C1.2 -49.07, 1.11 -43.52, 2.24 -42.16" stroke="#000000" stroke-width="1" fill="none"></path></g></g></svg>