<?xml version="1.0" standalone="no"?>
<!DOCTYPE svg PUBLIC "-//W3C//DTD SVG 20010904//EN"
 "http://www.w3.org/TR/2001/REC-SVG-20010904/DTD/svg10.dtd">
<svg version="1.0" xmlns="http://www.w3.org/2000/svg"
 width="1018.000000pt" height="1018.000000pt" viewBox="0 0 1018.000000 1018.000000"
 preserveAspectRatio="xMidYMid meet">
<metadata>
Created by potrace 1.11, written by Peter Selinger 2001-2013
</metadata>
<g transform="translate(0.000000,1018.000000) scale(0.100000,-0.100000)"
fill="#000000" stroke="none">
<path d="M4785 10162 c-2 -2 -45 -5 -97 -8 -156 -6 -265 -14 -336 -24 -37 -5
-98 -12 -137 -16 -38 -3 -83 -8 -100 -10 -16 -2 -59 -6 -95 -10 -94 -9 -100
-10 -153 -19 -26 -4 -65 -9 -85 -10 -20 -1 -37 -4 -37 -5 0 -1 -11 -3 -25 -5
-76 -8 -230 -38 -385 -75 -108 -26 -106 -26 -125 -32 -11 -5 -122 -34 -160
-44 -3 0 -12 -3 -20 -6 -8 -4 -55 -18 -105 -33 -306 -91 -661 -245 -893 -387
-18 -11 -34 -19 -36 -17 -2 2 -21 32 -44 65 -176 263 -365 419 -583 484 -60
18 -107 25 -234 32 -38 3 -156 -17 -208 -33 -166 -54 -268 -155 -339 -333 -50
-126 -57 -301 -19 -458 5 -21 7 -38 4 -38 -3 0 -1 -6 5 -13 6 -7 13 -24 15
-37 12 -61 148 -320 169 -320 4 0 8 -6 8 -13 0 -8 42 -57 93 -110 l94 -96 -80
-57 c-144 -103 -307 -278 -419 -449 -118 -182 -242 -467 -283 -655 -15 -72
-36 -176 -41 -207 -3 -21 -7 -49 -10 -63 -24 -141 -24 -545 -1 -655 3 -11 8
-42 11 -70 4 -27 9 -57 11 -65 2 -8 6 -27 9 -42 26 -152 103 -374 191 -554 71
-144 66 -117 49 -294 -3 -30 -7 -80 -9 -110 -2 -30 -4 -55 -5 -55 -3 0 -7 -54
-14 -170 -3 -49 -6 -90 -6 -90 -3 0 -16 -203 -26 -390 -3 -55 -7 -131 -9 -170
-11 -211 -20 -445 -31 -840 -10 -353 -10 -2002 0 -2695 5 -289 9 -608 11 -710
1 -102 3 -188 4 -191 0 -3 10 -17 22 -30 28 -33 88 -33 123 0 14 14 26 33 26
43 0 17 151 18 4550 18 2503 0 4549 -3 4548 -7 -10 -40 53 -89 101 -78 68 15
74 35 96 365 27 406 27 1585 0 2675 -3 99 -7 326 -10 505 -8 559 -18 906 -30
1130 -3 58 -8 148 -10 200 -3 52 -7 133 -10 180 -3 47 -8 114 -10 150 -2 36
-6 108 -10 161 l-6 96 56 87 c165 256 286 589 330 906 27 191 27 512 0 705 -4
26 -10 60 -41 215 -17 87 -73 254 -127 379 -131 307 -339 576 -585 759 l-80
59 57 84 c147 215 238 428 255 594 5 50 9 156 6 165 -1 3 -3 16 -6 30 -37 226
-195 417 -394 476 -81 24 -87 25 -192 28 -103 3 -213 -11 -288 -39 -25 -9 -49
-17 -55 -18 -27 -7 -126 -63 -185 -105 -98 -70 -233 -209 -324 -336 -47 -65
-39 -62 -87 -34 -209 122 -461 242 -704 336 -173 66 -368 132 -393 132 -12 0
-24 5 -27 10 -3 6 -17 10 -31 10 -13 0 -24 4 -24 8 0 4 -8 8 -17 8 -10 1 -83
18 -163 38 -80 21 -156 40 -170 42 -14 3 -34 7 -45 9 -11 2 -27 6 -35 9 -8 3
-31 7 -50 10 -19 3 -60 10 -90 16 -101 20 -125 23 -157 24 -18 1 -33 4 -33 7
0 3 -6 6 -12 6 -12 1 -94 10 -158 18 -94 12 -123 15 -185 20 -38 4 -86 8 -105
10 -33 4 -162 12 -317 20 -40 2 -77 6 -83 10 -5 3 -10 1 -10 -5 0 -6 -5 -8
-12 -3 -12 7 -416 12 -423 5z m-3755 -1761 c-6 -12 -14 -21 -19 -21 -4 0 -52
-43 -106 -95 -54 -52 -102 -92 -106 -89 -5 3 -7 -1 -4 -8 2 -7 -14 -33 -36
-58 -22 -25 -67 -87 -101 -137 -33 -51 -65 -90 -71 -86 -6 3 -7 1 -3 -5 3 -6
-18 -57 -46 -114 -29 -57 -59 -119 -66 -138 -8 -19 -18 -46 -25 -60 -6 -14
-11 -27 -12 -30 0 -3 -11 -39 -24 -80 -13 -41 -25 -83 -26 -93 -2 -9 -6 -20
-8 -25 -3 -4 -8 -24 -11 -44 -3 -21 -10 -57 -15 -80 -40 -182 -53 -493 -28
-673 4 -22 9 -65 13 -95 3 -30 8 -58 10 -61 2 -4 6 -22 8 -41 7 -49 43 -191
72 -281 14 -42 24 -82 22 -89 -5 -13 -64 148 -74 200 -4 18 -11 35 -15 38 -5
3 -7 9 -4 14 3 5 2 18 -4 27 -5 10 -12 34 -15 53 -3 19 -8 46 -11 60 -3 14 -8
41 -11 60 -3 19 -7 46 -10 60 -18 98 -24 389 -10 530 10 115 18 174 23 183 5
8 13 48 18 92 5 41 74 276 84 289 5 6 10 16 12 21 1 6 6 21 12 35 5 14 13 34
17 45 31 83 148 295 162 295 4 0 8 6 8 13 0 15 98 137 174 217 69 73 225 202
234 195 2 -2 -1 -13 -8 -24z"/>
</g>
</svg>
